<svg width="50" height="50" viewBox="0 0 50 50" fill="none" xmlns="http://www.w3.org/2000/svg">
<path d="M27.0833 6.25C16.7291 6.25 8.33325 14.6458 8.33325 25H2.08325L10.1874 33.1042L10.3333 33.3958L18.7499 25H12.4999C12.4999 16.9375 19.0208 10.4167 27.0833 10.4167C35.1458 10.4167 41.6666 16.9375 41.6666 25C41.6666 33.0625 35.1458 39.5833 27.0833 39.5833C23.0624 39.5833 19.4166 37.9375 16.7916 35.2917L13.8333 38.25C17.2291 41.6458 21.8958 43.75 27.0833 43.75C37.4374 43.75 45.8333 35.3542 45.8333 25C45.8333 14.6458 37.4374 6.25 27.0833 6.25ZM24.9999 16.6667V27.0833L33.9166 32.375L35.4166 29.8542L28.1249 25.5208V16.6667H24.9999Z" fill="#A41E35"/>
</svg>
