<svg width="50" height="50" viewBox="0 0 50 50" fill="none" xmlns="http://www.w3.org/2000/svg">
<path d="M33.3333 22.9166C36.7916 22.9166 39.5624 20.125 39.5624 16.6666C39.5624 13.2083 36.7916 10.4166 33.3333 10.4166C29.8749 10.4166 27.0833 13.2083 27.0833 16.6666C27.0833 20.125 29.8749 22.9166 33.3333 22.9166ZM16.6666 22.9166C20.1249 22.9166 22.8958 20.125 22.8958 16.6666C22.8958 13.2083 20.1249 10.4166 16.6666 10.4166C13.2083 10.4166 10.4166 13.2083 10.4166 16.6666C10.4166 20.125 13.2083 22.9166 16.6666 22.9166ZM16.6666 27.0833C11.8124 27.0833 2.08325 29.5208 2.08325 34.375V39.5833H31.2499V34.375C31.2499 29.5208 21.5208 27.0833 16.6666 27.0833ZM33.3333 27.0833C32.7291 27.0833 32.0416 27.125 31.3124 27.1875C33.7291 28.9375 35.4166 31.2916 35.4166 34.375V39.5833H47.9166V34.375C47.9166 29.5208 38.1874 27.0833 33.3333 27.0833Z" fill="#A41E35"/>
</svg>
